# xmcd
#
# Track frame offsets:
#	150
#	17147
#	38239
#	59489
#	79686
#	100480
#	120120
#	140049
#	161371
#	184501
#	204095
#	227905
#	250467
#	271351
#	283058
#
# Disc length: 4024 seconds
#
# Revision: 0
# Processed by: cddbd v1.5.2PL0 Copyright (c) Steve Scherf et al.
# Submitted via: dBpowerAMP V4.0
#
DISCID=ce0fb60f
DTITLE=張學友 - 真愛
DYEAR=1900
DGENRE=1995
TTITLE0=真愛(國)
TTITLE1=一千個傷心的理由(國)
TTITLE2=我等到花兒也謝了(國)
TTITLE3=123
TTITLE4=234
TTITLE5=456
TTITLE6=傷心(國)
TTITLE7=每天愛你多一些(國)
TTITLE8=吻別(國)
TTITLE9=你知不知到(國)
TTITLE10=回頭太難(國)
TTITLE11=永遠的笑容(國)
TTITLE12=祝福(國)
TTITLE13=人間道(國)
TTITLE14=請你愉快
EXTD=
EXTT0=
EXTT1=
EXTT2=
EXTT3=
EXTT4=
EXTT5=
EXTT6=
EXTT7=
EXTT8=
EXTT9=
EXTT10=
EXTT11=
EXTT12=
EXTT13=
EXTT14=
PLAYORDER=
